<?xml version="1.0" encoding="UTF-8"?>
<!-- Generated by Pixelmator Pro 3.7.1 -->
<svg viewBox="499 1411 4053 876" xmlns="http://www.w3.org/2000/svg">
    <path id="Path" fill="none" stroke="#ffffff" stroke-width="19.947342" d="M 732.437439 1679.197144 C 765.419128 1679.197144 787.824951 1687.918701 799.65918 1705.33667 C 805.259644 1714.674805 808.993225 1725.729858 810.860046 1738.480835 C 812.726868 1751.244263 813.660278 1766.024536 813.660278 1782.825806 C 813.660278 1799.631226 812.726868 1814.424072 810.860046 1827.175049 C 808.993225 1839.938477 805.563782 1850.676758 800.59259 1859.385742 C 794.988037 1868.1073 787.199951 1874.786987 777.249146 1879.45813 C 767.285889 1884.125122 753.909912 1886.458618 737.104492 1886.458618 L 682.954529 1886.458618 L 682.954529 1679.197144 L 732.437439 1679.197144 Z M 682.954529 2254.299072 L 682.954529 1970.481689 L 739.904663 1970.481689 L 828.598877 2254.299072 L 929.427307 2254.299072 L 826.732056 1950.876099 C 857.221863 1934.070557 878.548462 1911.985596 890.682739 1884.591919 C 902.821167 1857.210693 908.888306 1823.908081 908.888306 1784.696777 C 908.888306 1654.616211 852.871582 1589.56958 740.838074 1589.56958 L 587.726501 1589.56958 L 587.726501 2254.299072 L 682.954529 2254.299072 Z"/>
    <path id="path1" fill="none" stroke="#ffffff" stroke-width="19.947342" d="M 979.83905 2097.45459 C 979.83905 2125.460938 984.506104 2149.429443 993.844299 2169.343262 C 1003.178345 2189.27002 1015.620911 2205.754395 1031.188721 2218.822266 C 1046.127441 2232.523193 1063.074585 2242.790527 1082.067627 2249.632813 C 1101.048218 2256.475098 1120.187134 2259.904297 1139.484497 2259.904297 C 1158.769287 2259.904297 1177.908203 2256.475098 1196.901245 2249.632813 C 1215.881958 2242.790527 1233.154053 2232.523193 1248.717773 2218.822266 C 1263.656372 2205.754395 1275.7948 2189.27002 1285.128784 2169.343262 C 1294.467041 2149.429443 1299.134033 2125.460938 1299.134033 2097.45459 L 1299.134033 1746.415649 C 1299.134033 1719.663574 1294.467041 1696.003418 1285.128784 1675.464355 C 1275.7948 1654.925293 1263.656372 1637.811523 1248.717773 1624.114624 C 1233.154053 1611.042847 1215.881958 1601.096313 1196.901245 1594.237427 C 1177.908203 1587.395264 1158.769287 1583.969971 1139.484497 1583.969971 C 1120.187134 1583.969971 1101.048218 1587.395264 1082.067627 1594.237427 C 1063.074585 1601.096313 1046.127441 1611.042847 1031.188721 1624.114624 C 1015.620911 1637.811523 1003.178345 1654.925293 993.844299 1675.464355 C 984.506104 1696.003418 979.83905 1719.663574 979.83905 1746.415649 L 979.83905 2097.45459 Z M 1075.067139 1746.415649 C 1075.067139 1723.397217 1081.442627 1706.433472 1094.206055 1695.536743 C 1106.957031 1684.652588 1122.053955 1679.197998 1139.484497 1679.197998 C 1156.902466 1679.197998 1172.00354 1684.652588 1184.76709 1695.536743 C 1197.513794 1706.433472 1203.906006 1723.397217 1203.906006 1746.415649 L 1203.906006 2097.45459 C 1203.906006 2120.489746 1197.513794 2137.453613 1184.76709 2148.337646 C 1172.00354 2159.234375 1156.902466 2164.67627 1139.484497 2164.67627 C 1122.053955 2164.67627 1106.957031 2159.234375 1094.206055 2148.337646 C 1081.442627 2137.453613 1075.067139 2120.489746 1075.067139 2097.45459 L 1075.067139 1746.415649 Z"/>
    <path id="path2" fill="none" stroke="#ffffff" stroke-width="19.947342" d="M 1377.552002 2097.45459 C 1377.552002 2125.460938 1382.219116 2149.429443 1391.557251 2169.343262 C 1400.891357 2189.27002 1413.333862 2205.754395 1428.901733 2218.822266 C 1443.840332 2232.523193 1460.787476 2242.790527 1479.78064 2249.632813 C 1498.76123 2256.475098 1517.900146 2259.904297 1537.197388 2259.904297 C 1556.482178 2259.904297 1575.621216 2256.475098 1594.614258 2249.632813 C 1613.594849 2242.790527 1630.867065 2232.523193 1646.430664 2218.822266 C 1661.369385 2205.754395 1673.507813 2189.27002 1682.841797 2169.343262 C 1692.179932 2149.429443 1696.847046 2125.460938 1696.847046 2097.45459 L 1696.847046 1746.415649 C 1696.847046 1719.663574 1692.179932 1696.003418 1682.841797 1675.464355 C 1673.507813 1654.925293 1661.369385 1637.811523 1646.430664 1624.114624 C 1630.867065 1611.042847 1613.594849 1601.096313 1594.614258 1594.237427 C 1575.621216 1587.395264 1556.482178 1583.969971 1537.197388 1583.969971 C 1517.900146 1583.969971 1498.76123 1587.395264 1479.78064 1594.237427 C 1460.787476 1601.096313 1443.840332 1611.042847 1428.901733 1624.114624 C 1413.333862 1637.811523 1400.891357 1654.925293 1391.557251 1675.464355 C 1382.219116 1696.003418 1377.552002 1719.663574 1377.552002 1746.415649 L 1377.552002 2097.45459 Z M 1472.780029 1746.415649 C 1472.780029 1723.397217 1479.155518 1706.433472 1491.919067 1695.536743 C 1504.670044 1684.652588 1519.766968 1679.197998 1537.197388 1679.197998 C 1554.615479 1679.197998 1569.716553 1684.652588 1582.47998 1695.536743 C 1595.230957 1706.433472 1601.619019 1723.397217 1601.619019 1746.415649 L 1601.619019 2097.45459 C 1601.619019 2120.489746 1595.230957 2137.453613 1582.47998 2148.337646 C 1569.716553 2159.234375 1554.615479 2164.67627 1537.197388 2164.67627 C 1519.766968 2164.67627 1504.670044 2159.234375 1491.919067 2148.337646 C 1479.155518 2137.453613 1472.780029 2120.489746 1472.780029 2097.45459 L 1472.780029 1746.415649 Z"/>
    <path id="path3" fill="none" stroke="#ffffff" stroke-width="19.947342" d="M 1876.094727 2254.300781 L 1876.094727 1850.049316 L 1877.961548 1850.049316 L 1971.322754 2135.733398 L 2018.938843 2135.733398 L 2113.233398 1850.049316 L 2115.100342 1850.049316 L 2115.100342 2254.300781 L 2210.328369 2254.300781 L 2210.328369 1589.571289 L 2117.900391 1589.571289 L 1996.528809 1941.539551 L 1994.661987 1941.539551 L 1872.361084 1589.571289 L 1780.866699 1589.571289 L 1780.866699 2254.300781 L 1876.094727 2254.300781 Z"/>
    <text id="ROOM" xml:space="preserve" x="542" y="2256" font-family="DIN Condensed" font-size="933.609738" font-weight="700" fill="#ffffff">ROOM</text>
    <path id="path4" fill="none" stroke="#ffffff" stroke-width="19.947342" d="M 3123.484863 2254.300781 L 3123.484863 2159.072754 L 2934.895508 2159.072754 L 2934.895508 1589.571289 L 2839.66748 1589.571289 L 2839.66748 2254.300781 L 3123.484863 2254.300781 Z"/>
    <path id="path5" fill="none" stroke="#ffffff" stroke-width="19.947342" d="M 3283.132324 2254.300781 L 3283.132324 1973.283569 L 3413.838135 1589.571289 L 3313.009521 1589.571289 L 3236.453857 1853.782837 L 3234.582764 1853.782837 L 3158.0271 1589.571289 L 3057.198486 1589.571289 L 3187.904297 1973.283569 L 3187.904297 2254.300781 L 3283.132324 2254.300781 Z"/>
    <path id="path6" fill="none" stroke="#ffffff" stroke-width="19.947342" d="M 3713.512695 2254.300781 L 3713.512695 2164.673096 L 3530.523926 2164.673096 L 3713.512695 1665.193604 L 3713.512695 1589.571289 L 3439.967041 1589.571289 L 3439.967041 1679.198853 L 3609.879883 1679.198853 L 3430.628906 2170.277588 L 3430.628906 2254.300781 L 3713.512695 2254.300781 Z"/>
    <path id="path7" fill="none" stroke="#ffffff" stroke-width="19.947342" d="M 4056.139893 2254.300781 L 4056.139893 2159.072754 L 3867.550781 2159.072754 L 3867.550781 1963.949585 L 4031.867188 1963.949585 L 4031.867188 1874.321899 L 3867.550781 1874.321899 L 3867.550781 1679.198853 L 4056.139893 1679.198853 L 4056.139893 1589.571289 L 3772.322754 1589.571289 L 3772.322754 2254.300781 L 4056.139893 2254.300781 Z"/>
    <path id="path8" fill="none" stroke="#ffffff" stroke-width="19.947342" d="M 4262.462891 1679.197144 C 4295.444824 1679.197144 4317.850586 1687.918701 4329.68457 1705.33667 C 4335.285156 1714.674805 4339.019043 1725.729858 4340.885742 1738.480835 C 4342.752441 1751.244263 4343.686035 1766.024536 4343.686035 1782.825806 C 4343.686035 1799.631226 4342.752441 1814.424072 4340.885742 1827.175049 C 4339.019043 1839.938477 4335.589355 1850.676758 4330.618164 1859.385742 C 4325.013672 1868.1073 4317.225586 1874.786987 4307.274902 1879.45813 C 4297.311523 1884.125122 4283.935547 1886.458618 4267.129883 1886.458618 L 4212.97998 1886.458618 L 4212.97998 1679.197144 L 4262.462891 1679.197144 Z M 4212.97998 2254.299072 L 4212.97998 1970.481689 L 4269.930176 1970.481689 L 4358.624512 2254.299072 L 4459.453125 2254.299072 L 4356.757813 1950.876099 C 4387.247559 1934.070557 4408.574219 1911.985596 4420.708496 1884.591919 C 4432.84668 1857.210693 4438.914063 1823.908081 4438.914063 1784.696777 C 4438.914063 1654.616211 4382.896973 1589.56958 4270.86377 1589.56958 L 4117.751953 1589.56958 L 4117.751953 2254.299072 L 4212.97998 2254.299072 Z"/>
    <text id="LYZER" xml:space="preserve" x="2794" y="2256" font-family="DIN Condensed" font-size="933.609738" font-weight="700" fill="#ffffff">LYZER</text>
    <path id="path9" fill="#ffffff" stroke="none" d="M 2445.931641 1521.22522 C 2445.931641 1521.22522 2471.833496 1429.180664 2525.533447 1429.180664 C 2579.237549 1429.180664 2605.139404 1521.22522 2605.139404 1521.22522 C 2605.139404 1521.22522 2565.207275 1508.486816 2523.512451 1509.178467 C 2481.813477 1509.870239 2445.931641 1521.22522 2445.931641 1521.22522"/>
    <path id="path10" fill="none" stroke="#ffffff" stroke-width="1.179256" d="M 2445.931641 1521.22522 C 2445.931641 1521.22522 2471.833496 1429.180664 2525.533447 1429.180664 C 2579.237549 1429.180664 2605.139404 1521.22522 2605.139404 1521.22522 C 2605.139404 1521.22522 2565.207275 1508.486816 2523.512451 1509.178467 C 2481.813477 1509.870239 2445.931641 1521.22522 2445.931641 1521.22522 Z"/>
    <path id="path11" fill="#ffffff" stroke="none" d="M 2427.230469 1600.375366 C 2427.230469 1600.375366 2427.776367 1599.712891 2428.989014 1599.058594 C 2435.9729 1595.295776 2474.263184 1580.590576 2523.025391 1580.590576 C 2570.233154 1580.590576 2606.419189 1591.633057 2616.694824 1597.895996 C 2616.694824 1597.895996 2619.291016 1598.958618 2620.474365 1602.383911 L 2621.016113 1604.484009 L 2641.142578 1698.416138 C 2641.142578 1698.416138 2584.446533 1673.905884 2523.025391 1673.905884 C 2461.604004 1673.905884 2405.378906 1698.416138 2405.378906 1698.416138 L 2425.455322 1603.663086 C 2425.455322 1603.663086 2426.05127 1601.200439 2427.230469 1600.375366"/>
    <path id="path12" fill="none" stroke="#ffffff" stroke-width="1.179256" d="M 2427.230469 1600.375366 C 2427.230469 1600.375366 2427.776367 1599.712891 2428.989014 1599.058594 C 2435.9729 1595.295776 2474.263184 1580.590576 2523.025391 1580.590576 C 2570.233154 1580.590576 2606.419189 1591.633057 2616.694824 1597.895996 C 2616.694824 1597.895996 2619.291016 1598.958618 2620.474365 1602.383911 L 2621.016113 1604.484009 L 2641.142578 1698.416138 C 2641.142578 1698.416138 2584.446533 1673.905884 2523.025391 1673.905884 C 2461.604004 1673.905884 2405.378906 1698.416138 2405.378906 1698.416138 L 2425.455322 1603.663086 C 2425.455322 1603.663086 2426.05127 1601.200439 2427.230469 1600.375366 Z"/>
    <path id="path13" fill="#ffffff" stroke="none" d="M 2359.312012 1903.351196 L 2379.155273 1806.139648 C 2379.155273 1806.139648 2379.509521 1804.7229 2380.101074 1803.422852 C 2380.713623 1802.076904 2397.465088 1760.898804 2523.024414 1760.723755 C 2653.192627 1760.540405 2667.131104 1804.7229 2667.131104 1804.7229 L 2687.211914 1903.351196 C 2687.211914 1903.351196 2617.519043 1870.57373 2523.024414 1870.57373 C 2427.350586 1870.57373 2359.312012 1903.351196 2359.312012 1903.351196"/>
    <path id="path14" fill="none" stroke="#ffffff" stroke-width="1.179256" d="M 2359.312012 1903.351196 L 2379.155273 1806.139648 C 2379.155273 1806.139648 2379.509521 1804.7229 2380.101074 1803.422852 C 2380.713623 1802.076904 2397.465088 1760.898804 2523.024414 1760.723755 C 2653.192627 1760.540405 2667.131104 1804.7229 2667.131104 1804.7229 L 2687.211914 1903.351196 C 2687.211914 1903.351196 2617.519043 1870.57373 2523.024414 1870.57373 C 2427.350586 1870.57373 2359.312012 1903.351196 2359.312012 1903.351196 Z"/>
    <path id="path15" fill="#ffffff" stroke="none" d="M 2280.290283 2263.909668 L 2332.67749 2027.300171 C 2332.67749 2027.300171 2333.090088 2023.004028 2335.923584 2017.928589 C 2339.590576 2011.3573 2368.288574 1966.841431 2521.845947 1967.724854 C 2677.757813 1968.624878 2708.826904 2014.736694 2711.427002 2020.762207 C 2713.314697 2025.141724 2713.477295 2027.708496 2713.477295 2027.708496 L 2766.352051 2263.909668 L 2628.149902 2263.909668 L 2604.527344 2151.697021 C 2604.527344 2151.697021 2598.031006 2089.088135 2523.025391 2088.504883 C 2447.427979 2087.913086 2439.752441 2151.99292 2439.752441 2151.99292 L 2416.717285 2263.61377 Z"/>
    <path id="path16" fill="none" stroke="#ffffff" stroke-width="1.179256" d="M 2280.290283 2263.909668 L 2332.67749 2027.300171 C 2332.67749 2027.300171 2333.090088 2023.004028 2335.923584 2017.928589 C 2339.590576 2011.3573 2368.288574 1966.841431 2521.845947 1967.724854 C 2677.757813 1968.624878 2708.826904 2014.736694 2711.427002 2020.762207 C 2713.314697 2025.141724 2713.477295 2027.708496 2713.477295 2027.708496 L 2766.352051 2263.909668 L 2628.149902 2263.909668 L 2604.527344 2151.697021 C 2604.527344 2151.697021 2598.031006 2089.088135 2523.025391 2088.504883 C 2447.427979 2087.913086 2439.752441 2151.99292 2439.752441 2151.99292 L 2416.717285 2263.61377 L 2280.290283 2263.909668 Z"/>
</svg>
